<svg xmlns="http://www.w3.org/2000/svg" viewBox="0 0 150 150"><defs><style>.cls-1{fill:none;}.cls-2{fill:#344e41;}</style></defs><g id="Layer_2" data-name="Layer 2"><g id="Layer_1-2" data-name="Layer 1"><g id="Layer_2-2" data-name="Layer 2"><g id="Layer_1-2-2" data-name="Layer 1-2"><g id="Layer_2-2-2" data-name="Layer 2-2"><g id="Layer_1-2-2-2" data-name="Layer 1-2-2"><path class="cls-1" d="M0,150V0H150V150Zm75.88-8.31c35.84.12,65.7-29.45,66-65.3S112.3,10.33,76.25,10.22c-35.83-.12-65.71,29.46-66,65.3C10,111.52,39.83,141.58,75.88,141.69Z"/><path class="cls-2" d="M75.88,141.69c-36-.11-65.85-30.17-65.59-66.17.25-35.84,30.13-65.42,66-65.3,36.05.11,65.85,30.18,65.59,66.17S111.72,141.81,75.88,141.69Zm40.26-65.6c.24-21.47-17.87-39.81-39.69-40.19C54.8,35.52,36,54.07,36,75.82s17.84,39.8,39.69,40.2C97.35,116.41,115.89,98.12,116.14,76.09Z"/><path class="cls-1" d="M116.14,76.09c-.25,22-18.79,40.32-40.46,39.93C53.83,115.62,36,97.55,36,75.82S54.8,35.52,76.45,35.9C98.27,36.28,116.38,54.62,116.14,76.09Z"/></g></g></g></g></g></g></svg>